# xmcd
#
# Track frame offsets:
#	150
#	18087
#	31170
#	47772
#	59917
#	75495
#	86505
#	104510
#	122757
#	136800
#	154257
#	170262
#
# Disc length: 2455 seconds
#
# Revision: 1
# Processed by: cddbd v1.5.2PL0 Copyright (c) Steve Scherf et al.
# Submitted via: audiograbber 1.81.02
#
DISCID=9209950c
DTITLE=Various Artist - Allein deine Gande genügt - Die schönsten Panflöten-Me
DTITLE=lodien
DYEAR=2009
DGENRE=
TTITLE0=Schönster Herr Jesu
TTITLE1=Jubals Flöte
TTITLE2=El Condor Pasa
TTITLE3=Gott ist gut
TTITLE4=O lasst uns mit Jauchzen erheben
TTITLE5=Die Freude geht mit uns
TTITLE6=Jahwe
TTITLE7=Medley - Hosanna - Ich lieb dich, Herr
TTITLE8=Bahnt einen Weg unserm Gott
TTITLE9=Allein deine Gnade genügt
TTITLE10=Bewahre uns, Gott
TTITLE11=Geh unter der Gnade
EXTD=www.gerth.de, Art.-Nr.: 939391
EXTT0=
EXTT1=
EXTT2=
EXTT3=
EXTT4=
EXTT5=
EXTT6=
EXTT7=
EXTT8=
EXTT9=
EXTT10=
EXTT11=
PLAYORDER=
